<?xml version="1.0" encoding="UTF-8"?>
<svg xmlns="http://www.w3.org/2000/svg" width="274" height="224" viewBox="0 0 274 224">
  <path d="M 243.500 60.833 L 209.833 60.167 L 215.167 66.000 L 214.167 68.167 L 137.333 108.333 L 150.667 117.333 L 228.000 76.667 L 231.000 77.333 L 233.833 83.833 Z" fill="#63863B" fill-rule="evenodd"/>
  <path d="M 63.500 110.333 L 63.667 111.500 L 120.500 134.667 L 122.167 134.000 L 135.167 114.833 L 132.000 112.500 L 77.833 91.333 L 75.833 91.833 Z" fill="#63863B" fill-rule="evenodd"/>
  <path d="M 176.000 80.000 L 145.500 70.333 L 145.333 94.500 L 140.833 97.333 L 138.833 96.500 L 138.500 70.167 L 86.167 87.667 L 130.500 104.333 Z" fill="#34592E" fill-rule="evenodd"/>
  <path d="M 201.000 117.000 L 150.167 134.167 L 148.667 136.500 L 149.833 141.333 L 148.167 145.500 L 151.167 150.000 L 151.000 156.167 L 148.833 158.500 L 143.500 159.333 L 142.667 156.500 L 142.667 163.167 L 147.667 162.333 L 198.167 144.167 L 200.833 140.000 Z" fill="#63863B" fill-rule="evenodd"/>
  <path d="M 205.667 96.500 L 155.167 122.167 L 143.333 112.833 L 143.500 162.333 L 144.333 159.167 L 148.500 158.500 L 151.333 156.000 L 151.333 150.000 L 148.167 145.667 L 149.833 140.000 L 148.667 136.167 L 150.167 134.000 L 215.333 110.833 Z" fill="#34592E" fill-rule="evenodd"/>
  <path d="M 79.000 124.667 L 79.000 139.833 L 80.667 143.500 L 133.500 162.333 L 127.333 155.500 L 109.500 138.833 L 108.667 136.667 Z" fill="#34592E" fill-rule="evenodd"/>
  <path d="M 62.167 164.833 L 142.167 164.833 L 141.333 111.667 L 135.667 109.167 L 135.333 107.167 L 213.500 67.167 L 207.333 59.833 L 217.333 58.667 L 62.167 58.667 Z" fill="#FFFFFF" fill-rule="evenodd"/>
  <path d="M 245.167 58.667 L 229.500 58.667 L 245.000 60.167 L 233.833 85.667 L 229.000 77.500 L 152.333 117.333 L 155.000 120.500 L 205.667 94.667 L 216.833 111.167 L 202.167 117.500 L 202.167 140.167 L 200.333 143.667 L 143.333 164.833 L 245.167 164.833 Z" fill="#FFFFFF" fill-rule="evenodd"/>
</svg>